<svg width="34" height="33" viewBox="0 0 34 33" fill="none" xmlns="http://www.w3.org/2000/svg">
<path d="M9.53071 18.1492L14.5629 13.117L2.08017 0.651978C0.748054 1.98794 0 3.79759 0 5.6842C0 7.57082 0.748054 9.38047 2.08017 10.7164L9.53071 18.1492ZM21.5867 14.9307C24.3073 16.1932 28.1304 15.3041 30.9577 12.4768C34.354 9.08051 35.0119 4.20832 32.398 1.59441C29.8019 -1.00172 24.9297 -0.361579 21.5156 3.03473C18.6883 5.86202 17.7992 9.68509 19.0617 12.4057L1.70676 29.7607L4.21398 32.2679L16.4656 20.0518L28.6994 32.2857L31.2066 29.7784L18.9728 17.5446L21.5867 14.9307Z" fill="#EBC060"/>
</svg>
